<svg width="32" height="32" viewBox="0 0 32 32" fill="none" xmlns="http://www.w3.org/2000/svg">
<path d="M0.5 30.6122H25.9682" stroke="white" stroke-linecap="round" stroke-linejoin="round"/>
<path d="M14.3918 22.5087L7.4459 23.7589L8.60354 16.7204L24.1854 1.18486C24.4007 0.96785 24.6567 0.795606 24.9389 0.678062C25.221 0.560517 25.5236 0.5 25.8293 0.5C26.1349 0.5 26.4375 0.560517 26.7197 0.678062C27.0018 0.795606 27.2579 0.96785 27.4731 1.18486L29.9273 3.63906C30.1443 3.8543 30.3166 4.11037 30.4341 4.39251C30.5517 4.67465 30.6122 4.97727 30.6122 5.28292C30.6122 5.58856 30.5517 5.89118 30.4341 6.17332C30.3166 6.45546 30.1443 6.71153 29.9273 6.92677L14.3918 22.5087Z" stroke="white" stroke-linecap="round" stroke-linejoin="round"/>
</svg>
