<svg width="24" height="24" viewBox="0 0 24 24" fill="none" xmlns="http://www.w3.org/2000/svg">
<path d="M11.5081 6.98247C11.2984 6.80277 11.2737 6.48706 11.4534 6.27739C11.6331 6.06773 11.9488 6.04397 12.1585 6.22368L18.261 11.4542C18.3719 11.5491 18.4358 11.6881 18.4358 11.834C18.4358 11.9435 18.4 12.0489 18.3353 12.1348L18.261 12.2129L12.1585 17.4444C11.9488 17.6239 11.6331 17.5993 11.4534 17.3897C11.2739 17.18 11.2985 16.8643 11.5081 16.6846L17.1673 11.834L11.5081 6.98247Z" fill="white"/>
<path d="M17.9358 12.3336L5.73073 12.3336C5.45459 12.3336 5.23073 12.1098 5.23073 11.8336C5.23073 11.5575 5.45459 11.3336 5.73073 11.3336L17.9358 11.3336C18.212 11.3336 18.4358 11.5575 18.4358 11.8336C18.4358 12.1098 18.212 12.3336 17.9358 12.3336Z" fill="white"/>
<path d="M11.833 1C5.85007 1.00018 1 5.85101 1 11.834C1.00018 17.8168 5.85018 22.6668 11.833 22.667C17.816 22.667 22.6668 17.8169 22.667 11.834C22.667 5.8509 17.8161 1 11.833 1ZM11.833 5.1728e-07C18.3684 2.3161e-07 23.667 5.29862 23.667 11.834C23.6668 18.3692 18.3683 23.667 11.833 23.667C5.2979 23.6668 0.000176549 18.3691 5.1728e-07 11.834C2.31615e-07 5.29872 5.29779 0.000176548 11.833 5.1728e-07Z" fill="white"/>
</svg>
