<svg aria-hidden="true" style="position: absolute; width: 0; height: 0; overflow: hidden;" version="1.1" xmlns="http://www.w3.org/2000/svg" xmlns:xlink="http://www.w3.org/1999/xlink">
<defs>
<symbol id="icon-lighting" viewBox="0 0 23 32">
<path fill="none" stroke="#898d92" style="stroke: var(--color1, #898d92)" stroke-linejoin="round" stroke-linecap="round" stroke-miterlimit="4" stroke-width="1.0323" d="M13.763 0.516v11.911h8.43l-13.247 19.057v-11.911h-8.43l13.247-19.057z"></path>
</symbol>
<symbol id="icon-agency" viewBox="0 0 32 32">
<path stroke-linejoin="round" stroke-linecap="round" stroke-miterlimit="4" stroke-width="1" d="M0.5 30.612h25.468"></path>
<path stroke-linejoin="round" stroke-linecap="round" stroke-miterlimit="4" stroke-width="1" d="M14.392 22.509l-6.946 1.25 1.158-7.038 15.582-15.536c0.215-0.217 0.471-0.389 0.753-0.507s0.585-0.178 0.89-0.178c0.306 0 0.608 0.061 0.89 0.178s0.538 0.29 0.753 0.507l2.454 2.454c0.217 0.215 0.389 0.471 0.507 0.753s0.178 0.585 0.178 0.89-0.061 0.608-0.178 0.89c-0.117 0.282-0.29 0.538-0.507 0.753l-15.536 15.582z"></path>
</symbol>
<symbol id="icon-lamp" viewBox="0 0 22 32">
<path stroke-linejoin="round" stroke-linecap="round" stroke-miterlimit="4" stroke-width="1" d="M21.337 10.991c0.013-1.86-0.472-3.689-1.405-5.298s-2.279-2.939-3.9-3.852c-1.62-0.913-3.456-1.375-5.315-1.339s-3.675 0.569-5.259 1.544-2.878 2.356-3.748 3.999c-0.87 1.644-1.284 3.49-1.2 5.348s0.665 3.659 1.681 5.217 2.43 2.815 4.096 3.642v3.473c0 0.307 0.122 0.602 0.339 0.819s0.512 0.339 0.819 0.339h6.946c0.307 0 0.601-0.122 0.819-0.339s0.339-0.512 0.339-0.819v-3.473c1.731-0.853 3.189-2.171 4.212-3.807s1.569-3.525 1.576-5.454v0z"></path>
<path stroke-linejoin="round" stroke-linecap="round" stroke-miterlimit="4" stroke-width="1" d="M6.288 30.671h9.261"></path>
</symbol>
<symbol id="icon-quality" viewBox="0 0 32 32">
<path stroke-linejoin="round" stroke-linecap="round" stroke-miterlimit="4" stroke-width="1.0323" d="M31.32 7.883c-0.046-0.25-0.144-0.487-0.288-0.696s-0.33-0.386-0.546-0.519l-4.765 4.763c-0.222 0.23-0.489 0.414-0.783 0.539s-0.612 0.19-0.932 0.19c-0.32 0-0.637-0.065-0.932-0.19s-0.561-0.309-0.783-0.539l-1.81-1.619c-0.437-0.445-0.681-1.044-0.681-1.667s0.244-1.222 0.681-1.667l4.764-4.763c-0.104-0.244-0.26-0.462-0.458-0.639s-0.432-0.308-0.686-0.385c-1.662-0.331-3.384-0.19-4.97 0.409s-2.971 1.631-3.999 2.978c-1.028 1.348-1.656 2.956-1.814 4.644s0.161 3.385 0.921 4.899l-13.007 12.883c-0.227 0.222-0.407 0.487-0.53 0.779s-0.186 0.606-0.186 0.924c0 0.317 0.063 0.631 0.186 0.924s0.303 0.557 0.53 0.779l0.858 0.857c0.222 0.227 0.487 0.407 0.779 0.53s0.607 0.186 0.924 0.186c0.317 0 0.631-0.063 0.924-0.186s0.557-0.303 0.779-0.53l13.007-12.978c1.516 0.722 3.202 1.009 4.871 0.83s3.256-0.817 4.584-1.844c1.328-1.027 2.346-2.401 2.939-3.971s0.739-3.274 0.422-4.922v0z"></path>
</symbol>
<symbol id="icon-star" viewBox="0 0 33 32">
<path stroke-linejoin="round" stroke-linecap="round" stroke-miterlimit="4" stroke-width="1.0667" d="M17.776 1.312l3.923 7.984c0.089 0.203 0.23 0.378 0.407 0.509s0.386 0.213 0.604 0.237l8.66 1.293c0.251 0.033 0.487 0.136 0.682 0.299s0.339 0.378 0.417 0.621c0.078 0.243 0.085 0.502 0.022 0.749s-0.195 0.47-0.38 0.644l-6.242 6.243c-0.159 0.15-0.279 0.338-0.348 0.546s-0.085 0.431-0.047 0.647l1.505 8.78c0.044 0.252 0.016 0.512-0.079 0.749s-0.255 0.443-0.461 0.593-0.449 0.239-0.702 0.257c-0.253 0.018-0.507-0.037-0.731-0.157l-7.797-4.154c-0.2-0.099-0.419-0.15-0.642-0.15s-0.442 0.051-0.642 0.15l-7.797 4.154c-0.224 0.12-0.478 0.174-0.731 0.157s-0.497-0.107-0.702-0.257-0.365-0.356-0.461-0.593c-0.096-0.237-0.123-0.497-0.080-0.749l1.505-8.879c0.038-0.216 0.022-0.439-0.047-0.647s-0.189-0.396-0.348-0.546l-6.316-6.143c-0.187-0.179-0.318-0.409-0.378-0.661s-0.046-0.517 0.040-0.762c0.086-0.245 0.241-0.459 0.445-0.617s0.45-0.253 0.707-0.273l8.66-1.293c0.219-0.024 0.427-0.106 0.605-0.237s0.318-0.306 0.407-0.509l3.923-7.984c0.107-0.233 0.277-0.429 0.492-0.567s0.463-0.211 0.717-0.211 0.503 0.073 0.717 0.211c0.214 0.138 0.385 0.335 0.492 0.567v0z"></path>
</symbol>
</defs>
</svg>
