<svg width="17" height="31" viewBox="0 0 17 31" fill="none" xmlns="http://www.w3.org/2000/svg">
<path d="M13.166 14.7582V12.6849C13.166 12.4393 13.0682 12.2033 12.8945 12.0297C12.7209 11.8561 12.4848 11.7592 12.2393 11.7592H10.2988C9.88481 11.7591 9.54904 11.4232 9.54883 11.0092V8.42811C9.5489 7.2267 9.84963 6.3572 10.5723 5.87537C11.2112 5.44941 12.0173 5.47302 12.5039 5.47303H13.8379C13.9585 5.4746 14.0787 5.45204 14.1904 5.40662C14.3021 5.36116 14.404 5.29364 14.4893 5.20838C14.5745 5.12307 14.6421 5.02128 14.6875 4.90955C14.7215 4.82583 14.7422 4.73752 14.75 4.64783L14.7539 4.55701L14.7529 4.54725H14.7539V2.47401C14.7539 2.35143 14.7289 2.22968 14.6816 2.11658C14.6343 2.00359 14.5647 1.90087 14.4775 1.81483C14.3904 1.72888 14.2874 1.66039 14.1738 1.61463C14.0601 1.56884 13.938 1.54663 13.8154 1.54823C13.8086 1.54831 13.8017 1.54832 13.7949 1.54823L10.6631 1.50428C10.657 1.50419 10.6506 1.50354 10.6445 1.5033L10.6738 0.75428V0.747444L10.6445 1.5033C9.84142 1.47229 9.04108 1.61597 8.29883 1.9242C7.55634 2.23261 6.8887 2.69831 6.34375 3.28944C5.79887 3.8805 5.38874 4.58306 5.1416 5.34803C4.8945 6.11303 4.81695 6.92293 4.91309 7.72108C4.91667 7.7508 4.91796 7.78099 4.91797 7.81092V11.0092C4.91776 11.4232 4.58205 11.7592 4.16797 11.7592H2.42578C2.18041 11.7592 1.94506 11.8562 1.77148 12.0297C1.59782 12.2033 1.5 12.4393 1.5 12.6849V14.7582C1.50011 15.0036 1.59791 15.2389 1.77148 15.4125C1.94508 15.586 2.18031 15.6839 2.42578 15.684H4.16797C4.58218 15.684 4.91797 16.0198 4.91797 16.434V28.2767C4.91809 28.3701 4.95546 28.4597 5.02148 28.5258C5.08753 28.5918 5.17713 28.6292 5.27051 28.6293H9.22363C9.31107 28.6225 9.39293 28.5839 9.45312 28.5199C9.49938 28.4707 9.53054 28.4096 9.54297 28.3441L9.54883 28.2777V16.434C9.54883 16.0198 9.88468 15.684 10.2988 15.684H12.2393C12.4849 15.684 12.7209 15.5861 12.8945 15.4125C13.068 15.2389 13.1659 15.0036 13.166 14.7582ZM16.2539 4.54725H16.2529C16.2559 4.86474 16.1966 5.17977 16.0771 5.47401C15.9563 5.77136 15.7767 6.04192 15.5498 6.26893C15.3228 6.49593 15.0523 6.67538 14.7549 6.79627C14.4604 6.91594 14.1449 6.97503 13.8271 6.97205V6.97303H12.5039C11.8881 6.97304 11.5921 6.99819 11.4043 7.12342C11.3001 7.19295 11.0489 7.42523 11.0488 8.42811V10.2592H12.2393C12.8826 10.2592 13.5001 10.5142 13.9551 10.9691C14.41 11.4241 14.666 12.0415 14.666 12.6849V14.7582C14.6659 15.4014 14.4099 16.0182 13.9551 16.473C13.5001 16.928 12.8827 17.184 12.2393 17.184H11.0488V28.2748C11.0497 28.7475 10.8696 29.2028 10.5459 29.5472C10.2222 29.8915 9.77931 30.0989 9.30762 30.1273L9.2627 29.3783V29.3793L9.30762 30.1273C9.29271 30.1282 9.27763 30.1293 9.2627 30.1293H5.27051C4.77931 30.1292 4.30829 29.9336 3.96094 29.5863C3.6136 29.239 3.41809 28.7679 3.41797 28.2767V17.184H2.42578C1.78248 17.1839 1.16584 16.9279 0.710938 16.473C0.256063 16.0182 0.000106053 15.4015 0 14.7582V12.6849C0 12.0415 0.255968 11.4241 0.710938 10.9691C1.16582 10.5144 1.78259 10.2592 2.42578 10.2592H3.41797V7.83826C3.30722 6.84481 3.40745 5.83876 3.71484 4.88709C4.02869 3.91565 4.54925 3.02344 5.24121 2.27283C5.93315 1.5223 6.77994 0.931071 7.72266 0.539436C8.66536 0.147869 9.68212 -0.0340981 10.7021 0.00525676L13.8154 0.0492021C14.1299 0.0476433 14.4416 0.106509 14.7334 0.224007C15.0313 0.343993 15.3026 0.521846 15.5312 0.747444C15.7599 0.973109 15.9415 1.24208 16.0654 1.53846C16.1893 1.83481 16.2539 2.15282 16.2539 2.47401V4.54725Z" fill="#233942"/>
</svg>
