<svg width="28" height="31" viewBox="0 0 28 31" fill="none" xmlns="http://www.w3.org/2000/svg">
<path d="M6.08691 15.0673C6.08691 12.5617 6.75796 10.1541 8.11133 8.35344C9.48023 6.53231 11.5281 5.36322 14.1582 5.36321C16.4098 5.29425 18.6147 6.00969 20.3975 7.38567C20.4365 7.41001 20.4798 7.42703 20.5254 7.43352C20.5734 7.44034 20.6226 7.43596 20.6689 7.4218C20.7152 7.40762 20.7581 7.38389 20.7939 7.35149C20.8299 7.31905 20.8582 7.27889 20.877 7.2343L21.5557 7.51946L21.5283 7.50676L20.877 7.2343L20.8809 7.22453L22.2705 4.04875L22.2832 4.02043C22.3213 3.94245 22.3316 3.8529 22.3115 3.76848C22.2933 3.69229 22.2502 3.62526 22.1914 3.57414C19.7959 2.15446 17.0492 1.43623 14.2646 1.50383L14.2461 0.736254V0.754809L14.2646 1.50383C14.2579 1.504 14.2509 1.50483 14.2441 1.50481C6.68957 1.48419 1.5 7.32894 1.5 15.0673C1.50017 22.8076 6.71424 28.6513 14.1582 28.6513C17.9284 28.6513 20.8972 27.3126 22.9277 25.121C24.9647 22.9223 26.1103 19.8065 26.1104 16.1698C26.1104 15.0347 25.8802 14.3351 25.5078 13.9179C25.1517 13.519 24.5368 13.2363 23.4209 13.2363H17.9287L17.9297 12.4863V11.7363H23.4209C24.7744 11.7363 25.8796 12.0831 26.626 12.9189C27.3561 13.7367 27.6104 14.8793 27.6104 16.1698C27.6103 20.1192 26.3632 23.6191 24.0283 26.1396C21.6868 28.6671 18.3048 30.1513 14.1582 30.1513C5.76838 30.1513 0.000168464 23.5135 0 15.0673C0 6.62547 5.7396 -0.00710904 14.2285 0.00578513V0.00480857C17.3158 -0.0700967 20.3613 0.731453 23.0117 2.31633L23.0801 2.36223L23.2051 2.46575C23.4848 2.71899 23.6825 3.05227 23.7705 3.4218C23.8685 3.83363 23.8225 4.26539 23.6436 4.64836L23.6445 4.64934L22.2588 7.81438L22.2598 7.81536C22.1557 8.06273 21.998 8.2849 21.7988 8.46477C21.5999 8.64438 21.3637 8.77797 21.1074 8.85637C20.8508 8.93479 20.5792 8.95574 20.3135 8.91789C20.1144 8.88949 19.9217 8.82885 19.7432 8.73821L19.5693 8.63762L19.5186 8.60149C17.9989 7.41473 16.1107 6.79938 14.1836 6.86321L14.1582 6.09856V6.11321L14.1836 6.86321C14.1753 6.86348 14.1665 6.86321 14.1582 6.86321C12.0249 6.86322 10.4116 7.79005 9.31055 9.25481C8.19423 10.74 7.58691 12.8097 7.58691 15.0673C7.58698 17.336 8.15525 19.4044 9.24805 20.8847C10.3218 22.3392 11.9301 23.2704 14.1582 23.2704C14.181 23.2704 14.2039 23.2713 14.2266 23.2734C14.9706 23.3414 15.7207 23.252 16.4277 23.0107C17.1347 22.7693 17.783 22.3817 18.3301 21.873C18.8772 21.3642 19.3106 20.7452 19.6025 20.0575C19.798 19.5971 19.9247 19.1123 19.9844 18.6181H17.9297C17.4325 18.6181 16.9551 18.4199 16.6035 18.0683C16.2521 17.7168 16.0547 17.2401 16.0547 16.7431V13.6337C16.0518 13.3895 16.0964 13.147 16.1865 12.9198C16.2785 12.6881 16.4162 12.4767 16.5908 12.2988C16.7653 12.1209 16.9734 11.9792 17.2031 11.8827C17.433 11.7862 17.6804 11.7362 17.9297 11.7363L17.9287 13.2363C17.8791 13.2363 17.8299 13.2464 17.7842 13.2656C17.7382 13.2848 17.696 13.314 17.6611 13.3495C17.6265 13.385 17.5994 13.4274 17.5811 13.4736C17.5627 13.5198 17.5537 13.5694 17.5547 13.6191V16.7431C17.5547 16.8423 17.594 16.9375 17.6641 17.0077C17.7343 17.078 17.8303 17.1181 17.9297 17.1181H20.7744C21.1321 17.1182 21.4325 17.3685 21.5068 17.705L21.5244 17.8534L21.5215 18.2128C21.4931 19.0484 21.3109 19.873 20.9834 20.6445C20.609 21.5261 20.053 22.3193 19.3516 22.9716C18.6501 23.6239 17.8187 24.1211 16.9121 24.4306C16.0142 24.7371 15.0622 24.8511 14.1172 24.7685C11.4258 24.7568 9.3872 23.5974 8.04199 21.7753C6.70911 19.9699 6.08698 17.5617 6.08691 15.0673Z" fill="#233942"/>
</svg>
