<svg aria-hidden="true" style="position: absolute; width: 0; height: 0; overflow: hidden;" version="1.1" xmlns="http://www.w3.org/2000/svg" xmlns:xlink="http://www.w3.org/1999/xlink">
<defs>
<symbol id="icon-agency" viewBox="0 0 32 32">
<path stroke-linejoin="round" stroke-linecap="round" stroke-miterlimit="4" stroke-width="1" d="M0.5 30.612h25.468"></path>
<path stroke-linejoin="round" stroke-linecap="round" stroke-miterlimit="4" stroke-width="1" d="M14.392 22.509l-6.946 1.25 1.158-7.038 15.582-15.536c0.215-0.217 0.471-0.389 0.753-0.507s0.585-0.178 0.89-0.178c0.306 0 0.608 0.061 0.89 0.178s0.538 0.29 0.753 0.507l2.454 2.454c0.217 0.215 0.389 0.471 0.507 0.753s0.178 0.585 0.178 0.89-0.061 0.608-0.178 0.89c-0.117 0.282-0.29 0.538-0.507 0.753l-15.536 15.582z"></path>
</symbol>
<symbol id="icon-arrow" viewBox="0 0 32 32">
<path d="M15.344 9.31c-0.28-0.24-0.313-0.661-0.073-0.94s0.661-0.311 0.94-0.072l8.137 6.974c0.148 0.127 0.233 0.312 0.233 0.506 0 0.146-0.048 0.287-0.134 0.401l-0.099 0.104-8.137 6.975c-0.28 0.239-0.701 0.207-0.94-0.073s-0.207-0.701 0.073-0.94l7.546-6.467-7.546-6.469z"></path>
<path d="M23.914 16.445h-16.273c-0.368 0-0.667-0.298-0.667-0.667s0.298-0.667 0.667-0.667h16.273c0.368 0 0.667 0.299 0.667 0.667s-0.298 0.667-0.667 0.667z"></path>
<path d="M15.777 1.333c-7.977 0-14.444 6.468-14.444 14.445s6.467 14.444 14.444 14.444c7.977 0 14.445-6.467 14.445-14.444s-6.468-14.445-14.445-14.445zM15.777 0c8.714 0 15.779 7.065 15.779 15.779s-7.065 15.777-15.779 15.777c-8.713-0-15.777-7.064-15.777-15.777s7.064-15.778 15.777-15.779z"></path>
</symbol>
<symbol id="icon-facebook" viewBox="0 0 32 32">
<path d="M20.817 15.234v-2.14c0-0.254-0.101-0.497-0.28-0.676s-0.423-0.279-0.676-0.279h-2.003c-0.427-0-0.774-0.347-0.774-0.774v-2.664c0-1.24 0.311-2.138 1.056-2.635 0.66-0.44 1.492-0.415 1.994-0.415h1.377c0.125 0.002 0.249-0.022 0.364-0.069s0.221-0.117 0.309-0.205c0.088-0.088 0.158-0.193 0.205-0.308 0.035-0.086 0.056-0.178 0.065-0.27l0.004-0.094-0.001-0.010h0.001v-2.14c0-0.127-0.026-0.252-0.075-0.369s-0.121-0.223-0.211-0.311c-0.090-0.089-0.196-0.159-0.314-0.207s-0.243-0.070-0.37-0.069c-0.007 0-0.014 0-0.021 0l-3.233-0.045c-0.006-0-0.013-0.001-0.019-0.001l0.030-0.773v-0.007l-0.030 0.78c-0.829-0.032-1.655 0.116-2.421 0.434s-1.456 0.799-2.018 1.409c-0.562 0.61-0.986 1.335-1.241 2.125s-0.335 1.626-0.236 2.45c0.004 0.031 0.005 0.062 0.005 0.093v3.301c-0 0.427-0.347 0.774-0.774 0.774h-1.798c-0.253 0-0.496 0.1-0.675 0.279s-0.28 0.423-0.28 0.676v2.14c0 0.253 0.101 0.496 0.28 0.675s0.422 0.28 0.675 0.28h1.798c0.428 0 0.774 0.347 0.774 0.774v12.225c0 0.096 0.039 0.189 0.107 0.257s0.161 0.107 0.257 0.107h4.081c0.090-0.007 0.175-0.047 0.237-0.113 0.048-0.051 0.080-0.114 0.093-0.181l0.006-0.069v-12.226c0-0.428 0.347-0.774 0.774-0.774h2.003c0.254 0 0.497-0.101 0.676-0.28s0.28-0.422 0.28-0.675zM24.004 4.694h-0.001c0.003 0.328-0.058 0.653-0.181 0.957-0.125 0.307-0.31 0.586-0.544 0.821s-0.514 0.42-0.821 0.544c-0.304 0.124-0.63 0.185-0.958 0.181v0.001h-1.366c-0.636 0-0.941 0.026-1.135 0.155-0.108 0.072-0.367 0.312-0.367 1.347v1.89h1.229c0.664 0 1.301 0.263 1.771 0.733s0.734 1.107 0.734 1.771v2.14c-0 0.664-0.264 1.301-0.734 1.77s-1.107 0.734-1.771 0.734h-1.229v11.449c0.001 0.488-0.185 0.958-0.519 1.313s-0.791 0.57-1.278 0.599l-0.046-0.773v0.001l0.046 0.772c-0.015 0.001-0.031 0.002-0.046 0.002h-4.121c-0.507-0-0.993-0.202-1.352-0.561s-0.56-0.845-0.56-1.352v-11.451h-1.024c-0.664-0-1.301-0.264-1.77-0.734s-0.734-1.106-0.734-1.77v-2.14c0-0.664 0.264-1.301 0.734-1.771s1.106-0.733 1.77-0.733h1.024v-2.499c-0.114-1.026-0.011-2.064 0.306-3.046 0.324-1.003 0.861-1.924 1.576-2.699s1.588-1.385 2.562-1.789c0.973-0.404 2.023-0.592 3.076-0.551l3.214 0.045c0.325-0.002 0.646 0.059 0.948 0.18 0.308 0.124 0.588 0.307 0.824 0.54s0.424 0.511 0.551 0.817 0.195 0.634 0.195 0.966v2.14z"></path>
</symbol>
<symbol id="icon-google" viewBox="0 0 32 32">
<path d="M7.832 15.553c0-2.586 0.693-5.072 2.090-6.93 1.413-1.88 3.527-3.087 6.242-3.087 2.324-0.071 4.6 0.667 6.441 2.088 0.040 0.025 0.085 0.043 0.132 0.049 0.050 0.007 0.1 0.003 0.148-0.012s0.092-0.039 0.129-0.073c0.037-0.034 0.066-0.075 0.086-0.121l0.701 0.294-0.028-0.013-0.672-0.281 0.004-0.010 1.448-3.307c0.039-0.080 0.050-0.173 0.029-0.26-0.019-0.079-0.063-0.148-0.124-0.201-2.473-1.465-5.308-2.207-8.182-2.137l-0.019-0.792v0.019l0.019 0.773c-0.007 0-0.014 0.001-0.021 0.001-7.798-0.021-13.155 6.012-13.155 14 0 7.99 5.382 14.022 13.067 14.022 3.892 0 6.956-1.382 9.052-3.644 2.103-2.27 3.285-5.486 3.285-9.24 0-1.172-0.238-1.894-0.622-2.325-0.368-0.412-1.002-0.704-2.154-0.704h-5.669l0.001-0.774v-0.774h5.668c1.397 0 2.538 0.358 3.308 1.221 0.754 0.844 1.016 2.024 1.016 3.356-0 4.077-1.287 7.69-3.698 10.291-2.417 2.609-5.908 4.141-10.189 4.141-8.66 0-14.615-6.852-14.615-15.571 0-8.714 5.925-15.561 14.687-15.547v-0.001c3.187-0.077 6.331 0.75 9.067 2.386l0.071 0.047 0.129 0.107c0.289 0.261 0.493 0.605 0.584 0.987 0.101 0.425 0.054 0.871-0.131 1.266l0.001 0.001-1.43 3.267 0.001 0.001c-0.107 0.255-0.27 0.485-0.476 0.67s-0.449 0.323-0.714 0.404c-0.265 0.081-0.545 0.103-0.82 0.063-0.206-0.029-0.404-0.092-0.589-0.185l-0.18-0.104-0.052-0.037c-1.569-1.225-3.518-1.86-5.507-1.794l-0.026-0.789v0.015l0.026 0.774c-0.009 0-0.018 0-0.026 0-2.202 0-3.867 0.957-5.004 2.469-1.152 1.533-1.779 3.67-1.779 6 0 2.342 0.587 4.477 1.715 6.005 1.108 1.501 2.769 2.463 5.069 2.463 0.024 0 0.047 0.001 0.071 0.003 0.768 0.070 1.542-0.022 2.272-0.271s1.399-0.649 1.964-1.174c0.565-0.525 1.012-1.164 1.313-1.874 0.202-0.475 0.333-0.976 0.394-1.486h-2.121c-0.513 0-1.006-0.205-1.369-0.568s-0.567-0.855-0.567-1.368v-3.21c-0.003-0.252 0.043-0.502 0.136-0.737 0.095-0.239 0.237-0.457 0.417-0.641s0.395-0.33 0.632-0.43c0.237-0.1 0.493-0.151 0.75-0.151l-0.001 1.548c-0.051 0-0.102 0.010-0.149 0.030s-0.091 0.050-0.127 0.087c-0.036 0.037-0.064 0.080-0.083 0.128s-0.028 0.099-0.027 0.15v3.225c0 0.102 0.041 0.201 0.113 0.273s0.172 0.114 0.274 0.114h2.936c0.369 0 0.679 0.258 0.756 0.606l0.018 0.153-0.003 0.371c-0.029 0.863-0.217 1.714-0.555 2.51-0.386 0.91-0.96 1.729-1.684 2.402s-1.582 1.187-2.518 1.506c-0.927 0.316-1.91 0.434-2.885 0.349-2.778-0.012-4.883-1.209-6.271-3.090-1.376-1.864-2.018-4.35-2.018-6.924z"></path>
</symbol>
<symbol id="icon-lamp" viewBox="0 0 22 32">
<path stroke-linejoin="round" stroke-linecap="round" stroke-miterlimit="4" stroke-width="1" d="M21.337 10.991c0.013-1.86-0.472-3.689-1.405-5.298s-2.279-2.939-3.9-3.852c-1.62-0.913-3.456-1.375-5.315-1.339s-3.675 0.569-5.259 1.544-2.878 2.356-3.748 3.999c-0.87 1.644-1.284 3.49-1.2 5.348s0.665 3.659 1.681 5.217 2.43 2.815 4.096 3.642v3.473c0 0.307 0.122 0.602 0.339 0.819s0.512 0.339 0.819 0.339h6.946c0.307 0 0.601-0.122 0.819-0.339s0.339-0.512 0.339-0.819v-3.473c1.731-0.853 3.189-2.171 4.212-3.807s1.569-3.525 1.576-5.454v0z"></path>
<path stroke-linejoin="round" stroke-linecap="round" stroke-miterlimit="4" stroke-width="1" d="M6.288 30.671h9.261"></path>
</symbol>
<symbol id="icon-quality" viewBox="0 0 32 32">
<path stroke-linejoin="round" stroke-linecap="round" stroke-miterlimit="4" stroke-width="1.0323" d="M31.32 7.883c-0.046-0.25-0.144-0.487-0.288-0.696s-0.33-0.386-0.546-0.519l-4.765 4.763c-0.222 0.23-0.489 0.414-0.783 0.539s-0.612 0.19-0.932 0.19c-0.32 0-0.637-0.065-0.932-0.19s-0.561-0.309-0.783-0.539l-1.81-1.619c-0.437-0.445-0.681-1.044-0.681-1.667s0.244-1.222 0.681-1.667l4.764-4.763c-0.104-0.244-0.26-0.462-0.458-0.639s-0.432-0.308-0.686-0.385c-1.662-0.331-3.384-0.19-4.97 0.409s-2.971 1.631-3.999 2.978c-1.028 1.348-1.656 2.956-1.814 4.644s0.161 3.385 0.921 4.899l-13.007 12.883c-0.227 0.222-0.407 0.487-0.53 0.779s-0.186 0.606-0.186 0.924c0 0.317 0.063 0.631 0.186 0.924s0.303 0.557 0.53 0.779l0.858 0.857c0.222 0.227 0.487 0.407 0.779 0.53s0.607 0.186 0.924 0.186c0.317 0 0.631-0.063 0.924-0.186s0.557-0.303 0.779-0.53l13.007-12.978c1.516 0.722 3.202 1.009 4.871 0.83s3.256-0.817 4.584-1.844c1.328-1.027 2.346-2.401 2.939-3.971s0.739-3.274 0.422-4.922v0z"></path>
</symbol>
<symbol id="icon-lighting" viewBox="0 0 32 32">
<path stroke-linejoin="round" stroke-linecap="round" stroke-miterlimit="4" stroke-width="1.0323" d="M18.409 0.516v11.911h8.43l-13.247 19.057v-11.911h-8.43l13.247-19.057z"></path>
</symbol>
<symbol id="icon-linkedin" viewBox="0 0 32 32">
<path d="M6.655 12.156c-0-0.371-0.061-0.53-0.093-0.586-0.015-0.026-0.029-0.048-0.111-0.075-0.114-0.037-0.296-0.059-0.602-0.060-0.147-0.001-0.306 0.003-0.486 0.007-0.177 0.004-0.372 0.008-0.576 0.008s-0.399-0.004-0.577-0.008c-0.181-0.004-0.34-0.008-0.488-0.007-0.308 0.002-0.494 0.024-0.612 0.062-0.088 0.028-0.103 0.052-0.119 0.079-0.032 0.055-0.094 0.211-0.094 0.581v17.074c0 0.376 0.063 0.525 0.090 0.569 0.007 0.012 0.013 0.032 0.102 0.056 0.121 0.033 0.309 0.048 0.623 0.041 0.262-0.005 0.698-0.029 1.075-0.029s0.812 0.024 1.072 0.029c0.312 0.006 0.496-0.008 0.613-0.040 0.082-0.023 0.086-0.041 0.093-0.052 0.027-0.045 0.090-0.195 0.090-0.574v-17.074zM4.805 0c0.969 0.021 1.894 0.412 2.585 1.092s1.095 1.599 1.131 2.568v0c0 0.008 0.001 0.016 0.001 0.023 0.008 0.998-0.377 1.96-1.073 2.676s-1.645 1.131-2.643 1.153l-0.018-0.782-0.028 0.782c-0.992-0.036-1.931-0.453-2.625-1.162-0.651-0.665-1.038-1.541-1.096-2.466l-0.007-0.185 0.001-0.045c0.043-0.969 0.453-1.886 1.147-2.564s1.621-1.068 2.592-1.089h0.033zM4.806 7.512c-0.015 0-0.031 0.001-0.046 0l0.028-0.773 0.018 0.773zM4.787 1.549c-0.571 0.017-1.115 0.247-1.524 0.646-0.407 0.398-0.65 0.934-0.681 1.502 0.013 0.588 0.249 1.149 0.66 1.57s0.966 0.669 1.553 0.696c0.583-0.019 1.136-0.263 1.542-0.682 0.41-0.423 0.638-0.99 0.635-1.579-0.025-0.568-0.264-1.107-0.669-1.506s-0.947-0.63-1.516-0.646zM8.204 29.23c-0 0.509-0.077 0.98-0.307 1.366-0.25 0.419-0.621 0.643-1.007 0.751-0.353 0.098-0.735 0.104-1.061 0.098-0.378-0.008-0.655-0.029-1.040-0.029s-0.664 0.022-1.044 0.029c-0.328 0.006-0.711 0.001-1.065-0.097-0.386-0.106-0.762-0.328-1.015-0.747-0.234-0.387-0.314-0.86-0.314-1.371v-17.074c0-0.507 0.079-0.974 0.304-1.361 0.242-0.415 0.602-0.651 0.986-0.773 0.354-0.113 0.737-0.133 1.074-0.135 0.174-0.001 0.356 0.003 0.532 0.007 0.18 0.004 0.358 0.008 0.541 0.008s0.361-0.004 0.54-0.008c0.176-0.004 0.357-0.008 0.53-0.007 0.334 0.002 0.716 0.021 1.069 0.135 0.384 0.124 0.741 0.363 0.979 0.778 0.221 0.386 0.297 0.851 0.297 1.356v17.074z"></path>
<path d="M23.386 29.162v-9.106c0-0.022 0.001-0.045 0.003-0.066v0c0.030-0.358-0.016-0.718-0.137-1.056s-0.314-0.646-0.565-0.903-0.553-0.458-0.888-0.588c-0.335-0.13-0.695-0.186-1.053-0.164l-0.066 0.001 0.019-0.769v-0.005l-0.019 0.774c-0.358-0.009-0.713 0.058-1.043 0.197s-0.626 0.346-0.87 0.608c-0.244 0.262-0.429 0.573-0.543 0.911s-0.157 0.698-0.122 1.054v0c0.002 0.025 0.004 0.051 0.004 0.076v9.105c0 0.509-0.078 0.98-0.308 1.367-0.251 0.419-0.623 0.644-1.010 0.751-0.354 0.098-0.737 0.103-1.066 0.097-0.38-0.008-0.663-0.028-1.053-0.028s-0.672 0.021-1.050 0.028c-0.326 0.006-0.707 0.001-1.059-0.098-0.387-0.108-0.757-0.335-1.004-0.755-0.226-0.386-0.301-0.855-0.301-1.362v-17.073c0-0.571 0.104-1.091 0.397-1.502 0.309-0.434 0.743-0.632 1.158-0.715 0.217-0.043 0.509-0.057 0.782-0.063 0.29-0.006 0.622-0.002 0.949 0.005 0.679 0.015 1.297 0.042 1.631 0.042 0.817 0 1.241 0.651 1.43 1.106 0.438-0.355 0.921-0.653 1.44-0.884 0.997-0.445 2.090-0.63 3.177-0.54 1.044-0.055 2.088 0.103 3.068 0.47 0.999 0.374 1.908 0.954 2.668 1.703s1.354 1.647 1.744 2.64c0.39 0.993 0.566 2.057 0.518 3.122v11.621c-0 0.507-0.075 0.976-0.301 1.362-0.247 0.42-0.616 0.646-1.003 0.755-0.352 0.099-0.733 0.104-1.059 0.098-0.378-0.008-0.66-0.029-1.050-0.029s-0.672 0.022-1.050 0.029c-0.326 0.007-0.708 0.001-1.059-0.098-0.387-0.108-0.756-0.335-1.003-0.755-0.226-0.386-0.302-0.855-0.302-1.362zM17.104 12.658l0.621 0.462c-0.202 0.271-0.556 0.38-0.875 0.269s-0.529-0.415-0.52-0.752l0.774 0.021zM12.802 29.229c0 0.381 0.062 0.532 0.089 0.578 0.006 0.011 0.006 0.027 0.086 0.049 0.115 0.032 0.297 0.047 0.611 0.040 0.262-0.005 0.698-0.029 1.082-0.029s0.82 0.024 1.084 0.029c0.316 0.006 0.502-0.009 0.621-0.041 0.085-0.024 0.088-0.042 0.095-0.053 0.027-0.045 0.090-0.194 0.090-0.573v-9.074c-0.049-0.56 0.019-1.124 0.2-1.657 0.185-0.547 0.484-1.048 0.877-1.471s0.871-0.756 1.403-0.98c0.521-0.219 1.083-0.327 1.648-0.318 0.57-0.029 1.14 0.062 1.672 0.268 0.542 0.21 1.033 0.534 1.439 0.951s0.717 0.915 0.913 1.463c0.192 0.536 0.268 1.106 0.225 1.673v9.077c0 0.381 0.062 0.532 0.089 0.578 0.006 0.011 0.008 0.026 0.087 0.048 0.115 0.032 0.296 0.047 0.61 0.040 0.262-0.005 0.698-0.029 1.082-0.029s0.819 0.024 1.081 0.029c0.314 0.006 0.496-0.008 0.611-0.040 0.079-0.022 0.080-0.038 0.087-0.048 0.027-0.046 0.088-0.197 0.088-0.578v-11.655c0-0.012 0-0.024 0.001-0.035v0c0.038-0.848-0.102-1.695-0.412-2.486s-0.784-1.508-1.389-2.104c-0.605-0.596-1.329-1.057-2.124-1.355-0.696-0.261-1.434-0.39-2.175-0.384l-0.318 0.011-0.117-0.002-0.316-0.018c-0.737-0.020-1.471 0.126-2.146 0.427-0.771 0.344-1.442 0.881-1.947 1.558l-0.621-0.463-0.774-0.020c0.009-0.347-0.045-0.728-0.148-0.991-0.037-0.094-0.070-0.146-0.090-0.174-0.369-0.004-1.016-0.028-1.586-0.040-0.319-0.007-0.627-0.010-0.885-0.005-0.275 0.005-0.442 0.020-0.509 0.033-0.153 0.031-0.185 0.072-0.201 0.094-0.031 0.044-0.11 0.196-0.11 0.604v17.073z"></path>
</symbol>
<symbol id="icon-star" viewBox="0 0 32 32">
<path stroke-linejoin="round" stroke-linecap="round" stroke-miterlimit="4" stroke-width="1.0323" d="M17.202 1.786l3.797 7.726c0.086 0.196 0.222 0.366 0.394 0.493s0.373 0.206 0.585 0.229l8.381 1.252c0.243 0.031 0.472 0.132 0.66 0.289s0.328 0.366 0.403 0.601c0.075 0.235 0.082 0.486 0.021 0.725s-0.189 0.455-0.367 0.623l-6.041 6.041c-0.154 0.145-0.27 0.327-0.337 0.529s-0.082 0.417-0.045 0.627l1.457 8.496c0.042 0.244 0.016 0.495-0.077 0.725s-0.247 0.428-0.446 0.574-0.435 0.232-0.68 0.249c-0.245 0.017-0.49-0.035-0.707-0.152l-7.545-4.020c-0.193-0.096-0.406-0.145-0.621-0.145s-0.428 0.050-0.621 0.145l-7.545 4.020c-0.217 0.116-0.462 0.169-0.707 0.152s-0.481-0.103-0.68-0.249-0.354-0.344-0.446-0.574c-0.092-0.23-0.119-0.481-0.077-0.725l1.457-8.593c0.037-0.209 0.021-0.425-0.045-0.627s-0.182-0.383-0.337-0.529l-6.113-5.945c-0.181-0.173-0.308-0.395-0.366-0.64s-0.045-0.501 0.039-0.737c0.083-0.237 0.233-0.444 0.431-0.597s0.436-0.245 0.684-0.264l8.381-1.252c0.212-0.024 0.413-0.103 0.585-0.229s0.308-0.297 0.394-0.493l3.797-7.726c0.103-0.225 0.268-0.416 0.476-0.549s0.448-0.204 0.694-0.204 0.487 0.071 0.694 0.204c0.207 0.133 0.372 0.324 0.476 0.549v0z"></path>
</symbol>
<symbol id="icon-twitter" viewBox="0 0 32 32">
<path d="M19.365 2.376c2.979-0.767 6.604 0.328 8.748 2.706h2.693c0.275 0 0.531 0.142 0.677 0.375s0.163 0.525 0.044 0.773l-2.533 5.245c0.73 5.908-1.564 11.546-6.186 14.867-4.699 3.375-11.66 4.259-19.992 0.84-0.368-0.141-0.687-0.388-0.914-0.711-0.233-0.332-0.357-0.728-0.357-1.133s0.125-0.802 0.357-1.134c0.233-0.332 0.563-0.585 0.945-0.724l0.064-0.020c1.534-0.416 2.989-1.072 4.315-1.939-2.459-1.33-4.467-3.381-5.74-5.895-1.475-2.913-1.866-6.255-1.107-9.429 0.039-0.349 0.167-0.682 0.378-0.965 0.226-0.303 0.534-0.535 0.887-0.668s0.738-0.162 1.107-0.083c0.369 0.078 0.707 0.261 0.976 0.526l0.626 0.598c3.107 2.881 5.833 4.132 7.781 4.667 1.042 0.286 1.87 0.37 2.425 0.384 0.008 0 0.015-0 0.023 0-0.235-2.207 0.104-3.997 0.891-5.372 0.894-1.563 2.314-2.501 3.893-2.907zM16.281 11.278c0.072 0.432-0.216 0.843-0.648 0.92l-0.141-0.787 0.788-0.132zM3.144 25.336c0 0.077 0.023 0.153 0.068 0.216s0.108 0.111 0.18 0.137c0.010 0.004 0.020 0.007 0.030 0.011 7.946 3.261 14.299 2.323 18.451-0.659 4.164-2.991 6.256-8.133 5.505-13.593-0.021-0.156 0.003-0.315 0.072-0.457l2.080-4.309h-1.783c-0.21-0-0.411-0.083-0.559-0.229l-0.060-0.066-0.165-0.194c-1.741-1.967-4.784-2.891-7.199-2.269-1.218 0.314-2.251 1.014-2.903 2.153-0.657 1.148-0.977 2.833-0.58 5.2l-0.79 0.131 0.001 0.001c0.133 0.746 0.141 0.785 0.141 0.787h-0.003l-0.003 0.001c-0.002 0-0.005 0.001-0.007 0.001-0.006 0.001-0.013 0.002-0.021 0.003-0.016 0.003-0.038 0.006-0.065 0.009-0.054 0.007-0.129 0.015-0.223 0.023-0.188 0.015-0.455 0.027-0.793 0.019-0.675-0.017-1.632-0.117-2.807-0.44-2.356-0.647-5.556-2.178-9.106-5.668l-0.001-0.001c-0.051-0.050-0.115-0.085-0.185-0.1s-0.144-0.010-0.211 0.016c-0.067 0.025-0.126 0.070-0.169 0.127s-0.069 0.126-0.074 0.198c-0.003 0.044-0.009 0.089-0.020 0.132l-0.117 0.53c-0.523 2.66-0.145 5.425 1.084 7.853 1.311 2.59 3.504 4.627 6.183 5.744l-0.308 0.738 0.495 0.63c-1.75 1.374-3.756 2.384-5.901 2.973-0.068 0.027-0.127 0.073-0.169 0.133-0.044 0.063-0.068 0.139-0.068 0.217z"></path>
</symbol>
</defs>
</svg>
