<svg width="22" height="32" viewBox="0 0 22 32" fill="none" xmlns="http://www.w3.org/2000/svg">
<path d="M21.3373 10.9907C21.3502 9.13102 20.865 7.30175 19.9322 5.69285C18.9993 4.08395 17.6528 2.75407 16.0325 1.84127C14.4121 0.928468 12.577 0.466023 10.7176 0.501944C8.85814 0.537865 7.04222 1.07084 5.45833 2.04554C3.87444 3.02024 2.58032 4.40114 1.71032 6.04486C0.840314 7.68859 0.426143 9.53523 0.510802 11.3931C0.595462 13.2509 1.17587 15.0522 2.19176 16.61C3.20765 18.1678 4.622 19.4253 6.28797 20.2519V23.7248C6.28797 24.0318 6.40994 24.3263 6.62704 24.5434C6.84414 24.7605 7.13859 24.8825 7.44561 24.8825H14.3915C14.6985 24.8825 14.993 24.7605 15.2101 24.5434C15.4272 24.3263 15.5491 24.0318 15.5491 23.7248V20.2519C17.2797 19.3992 18.7383 18.0808 19.7608 16.4448C20.7833 14.8088 21.3293 12.92 21.3373 10.9907V10.9907Z" stroke="#898D92" stroke-linecap="round" stroke-linejoin="round"/>
<path d="M6.28796 30.6705H15.5491" stroke="#898D92" stroke-linecap="round" stroke-linejoin="round"/>
</svg>
