<svg width="29" height="31" viewBox="0 0 29 31" fill="none" xmlns="http://www.w3.org/2000/svg">
<path d="M5.44727 11.7764C5.44725 11.4165 5.38849 11.2632 5.35742 11.209C5.34289 11.1837 5.32973 11.1625 5.25 11.1367C5.13966 11.1011 4.96355 11.0798 4.66699 11.0781C4.52449 11.0773 4.3709 11.081 4.19629 11.085C4.02509 11.0889 3.83593 11.0928 3.63867 11.0928C3.44147 11.0928 3.25181 11.0889 3.08008 11.085C2.9051 11.081 2.7509 11.0773 2.60742 11.0781C2.3089 11.0798 2.12906 11.1012 2.01465 11.1377C1.92946 11.1649 1.91438 11.1882 1.89941 11.2139C1.86839 11.2671 1.80861 11.4185 1.80859 11.7764V28.3164C1.80861 28.6811 1.86973 28.8246 1.89551 28.8672C1.90278 28.8792 1.90806 28.8982 1.99414 28.9219C2.11143 28.9541 2.29343 28.968 2.59766 28.9619C2.85139 28.9568 3.27346 28.9336 3.63867 28.9336C4.00404 28.9336 4.42497 28.9568 4.67676 28.9619C4.97907 28.968 5.15728 28.9544 5.27051 28.9229C5.35017 28.9006 5.35367 28.8836 5.36035 28.8721C5.38627 28.8286 5.44725 28.6831 5.44727 28.3164V11.7764ZM3.65527 0C4.59412 0.0205265 5.49003 0.398766 6.15918 1.05762C6.82833 1.71647 7.2198 2.60651 7.25488 3.54492L6.48828 3.57324H6.50586L7.25488 3.54492C7.25516 3.55227 7.2558 3.56003 7.25586 3.56738C7.26327 4.53449 6.89017 5.46595 6.2168 6.16016C5.54328 6.85439 4.62325 7.25545 3.65625 7.27734L3.63867 6.51953L3.61133 7.27734C2.65059 7.24206 1.74044 6.8388 1.06836 6.15137C0.438176 5.50675 0.0623426 4.65849 0.00683594 3.7627L0 3.58301L0.000976562 3.53906L0.742188 3.57227H0.75L0.000976562 3.53906C0.0429365 2.59993 0.440025 1.71178 1.1123 1.05469C1.78491 0.397484 2.68288 0.0201198 3.62305 0H3.65527ZM3.65625 7.27734C3.64145 7.27768 3.62612 7.27789 3.61133 7.27734L3.63867 6.52832L3.65625 7.27734ZM3.6377 1.50098C3.08453 1.51716 2.55729 1.73995 2.16113 2.12695C1.76661 2.51244 1.53156 3.03187 1.50098 3.58203C1.51397 4.15148 1.74216 4.69484 2.14062 5.10254C2.53894 5.50997 3.07685 5.75019 3.64551 5.77637C4.21015 5.75757 4.74584 5.52116 5.13965 5.11523C5.53711 4.70545 5.75741 4.15662 5.75488 3.58594C5.73053 3.03524 5.49948 2.51398 5.10645 2.12695C4.71343 1.73998 4.18865 1.51685 3.6377 1.50098ZM6.94727 28.3164C6.94725 28.8096 6.87226 29.2656 6.64941 29.6396C6.40756 30.0455 6.04783 30.2628 5.67383 30.3672C5.3322 30.4624 4.96212 30.4682 4.64648 30.4619C4.2803 30.4546 4.01178 30.4336 3.63867 30.4336C3.26538 30.4336 2.99539 30.4546 2.62695 30.4619C2.30917 30.4682 1.93858 30.4626 1.5957 30.3682C1.22149 30.2651 0.857951 30.05 0.612305 29.6445C0.385181 29.2695 0.308606 28.8116 0.308594 28.3164V11.7764C0.308609 11.2853 0.385091 10.8327 0.603516 10.458C0.837987 10.0561 1.18658 9.82776 1.55859 9.70898C1.90164 9.59947 2.27289 9.57993 2.59863 9.57812C2.76709 9.5772 2.94343 9.58109 3.11426 9.58496C3.28848 9.58891 3.46117 9.59277 3.63867 9.59277C3.81616 9.59277 3.98852 9.58891 4.16211 9.58496C4.33236 9.58109 4.5082 9.57719 4.67578 9.57812C4.99933 9.57993 5.36934 9.59862 5.71094 9.70898C6.08282 9.82917 6.42843 10.0604 6.65918 10.4629C6.87342 10.8366 6.94725 11.2873 6.94727 11.7764V28.3164Z" fill="#233942"/>
<path d="M21.6556 28.2505V19.4292C21.6556 19.4079 21.6568 19.386 21.6586 19.3648L22.4056 19.4292H22.4115L21.6586 19.3648C21.6881 19.0181 21.643 18.6689 21.5258 18.3414C21.4085 18.0138 21.2217 17.7156 20.9789 17.4664C20.7361 17.2172 20.4429 17.0227 20.1185 16.897C19.794 16.7713 19.4455 16.7172 19.098 16.7378L19.0345 16.7388L19.0531 15.9937V15.9888L19.0345 16.7388C18.6881 16.7301 18.3433 16.795 18.0238 16.9292C17.7044 17.0636 17.4171 17.2645 17.181 17.5181C16.945 17.7718 16.7657 18.0727 16.6547 18.4009C16.5436 18.7293 16.5029 19.0774 16.5365 19.4224L15.7845 19.4957H15.7904L16.5365 19.4224C16.5388 19.4466 16.5404 19.4714 16.5404 19.4957V28.316C16.5404 28.8091 16.4653 29.2657 16.2416 29.6402C15.9988 30.0466 15.6379 30.2638 15.2631 30.3677C14.9206 30.4626 14.5492 30.4678 14.2308 30.4615C13.8623 30.4542 13.5887 30.4341 13.2103 30.4341C12.832 30.4341 12.5592 30.4541 12.1927 30.4615C11.8767 30.4678 11.5073 30.4623 11.1664 30.3667C10.7914 30.2616 10.4329 30.0424 10.1937 29.6353C9.97442 29.2618 9.90173 28.807 9.90173 28.316V11.7769C9.90173 11.2238 10.0026 10.7203 10.2865 10.3218C10.5858 9.90181 11.0067 9.70984 11.4086 9.62944C11.619 9.58735 11.9017 9.57405 12.1664 9.5689C12.4473 9.56343 12.769 9.56681 13.0853 9.57378C13.7432 9.58827 14.3421 9.61479 14.6654 9.61479C15.4566 9.61481 15.8673 10.245 16.0511 10.6861C16.4751 10.3426 16.9434 10.0539 17.4457 9.82964C18.4114 9.3985 19.4703 9.21947 20.5238 9.3062C21.535 9.25266 22.5467 9.40613 23.4955 9.76128C24.4631 10.1235 25.3441 10.6859 26.0804 11.4107C26.8166 12.1354 27.3924 13.0067 27.7699 13.9683C28.1474 14.93 28.3185 15.9607 28.2719 16.9927V28.2505C28.2718 28.7416 28.1993 29.1964 27.9799 29.5699C27.7407 29.9767 27.383 30.1962 27.0082 30.3013C26.6672 30.3969 26.2978 30.4024 25.9818 30.396C25.6153 30.3887 25.3426 30.3677 24.9642 30.3677C24.5858 30.3677 24.3132 30.3887 23.9467 30.396C23.6306 30.4024 23.2612 30.3969 22.9203 30.3013C22.5455 30.1962 22.1877 29.9766 21.9486 29.5699C21.7292 29.1964 21.6557 28.7416 21.6556 28.2505ZM15.5697 12.2623L16.1713 12.7095C15.9759 12.9717 15.6326 13.0774 15.3236 12.9703C15.0149 12.8631 14.811 12.5684 14.8197 12.2417L15.5697 12.2623ZM11.4017 28.316C11.4017 28.6848 11.4618 28.8314 11.4877 28.8755C11.4939 28.8861 11.4937 28.9018 11.5707 28.9234C11.6817 28.9545 11.8584 28.9685 12.1625 28.9625C12.4162 28.9574 12.839 28.9341 13.2103 28.9341C13.5812 28.9341 14.0045 28.9574 14.2601 28.9625C14.5658 28.9685 14.7466 28.9542 14.8617 28.9224C14.9443 28.8995 14.9469 28.8817 14.9535 28.8707C14.9793 28.8274 15.0404 28.6826 15.0404 28.316V19.5259C14.9934 18.9832 15.0591 18.4367 15.2338 17.9205C15.413 17.3908 15.7024 16.9049 16.0834 16.4957C16.4642 16.0866 16.9275 15.7631 17.4427 15.5464C17.9479 15.3341 18.4918 15.2296 19.0394 15.2388C19.5917 15.2103 20.1437 15.2988 20.6595 15.4986C21.1847 15.702 21.66 16.0161 22.0531 16.4195C22.4462 16.8229 22.7481 17.3061 22.9379 17.8365C23.1236 18.3557 23.1976 18.908 23.1556 19.4576V28.2505C23.1557 28.6192 23.2157 28.766 23.2416 28.8101C23.2476 28.8206 23.2493 28.8356 23.3256 28.857C23.4366 28.888 23.6128 28.9021 23.9164 28.896C24.1701 28.891 24.5929 28.8677 24.9642 28.8677C25.3354 28.8677 25.7574 28.891 26.0111 28.896C26.3151 28.9021 26.4919 28.8881 26.6029 28.857C26.6793 28.8355 26.6808 28.8206 26.6869 28.8101C26.7128 28.766 26.7718 28.6192 26.7719 28.2505V16.9595C26.7719 16.9483 26.7723 16.9366 26.7728 16.9253L27.5219 16.9595H27.5336L26.7728 16.9253C26.81 16.1035 26.674 15.2829 26.3734 14.5171C26.0728 13.7512 25.6141 13.0562 25.0277 12.4791C24.4415 11.9021 23.7404 11.455 22.9701 11.1666C22.2957 10.9141 21.581 10.7883 20.8627 10.7945L20.5551 10.8052L20.4418 10.8033L20.1361 10.7857C19.4223 10.7666 18.7114 10.9076 18.057 11.1998C17.3097 11.5335 16.6604 12.0532 16.1713 12.7095L15.5697 12.2613L14.8197 12.2417C14.8288 11.9059 14.7762 11.5369 14.6761 11.2818C14.6403 11.1905 14.6087 11.14 14.5892 11.1128C14.232 11.1093 13.605 11.0859 13.0531 11.0738C12.7438 11.067 12.4459 11.064 12.1957 11.0689C11.9293 11.0741 11.7676 11.0881 11.7025 11.1011C11.5538 11.131 11.5231 11.171 11.5082 11.1919C11.4778 11.2345 11.4017 11.3818 11.4017 11.7769V28.316Z" fill="#233942"/>
</svg>
