<svg width="31" height="31" viewBox="0 0 31 31" fill="none" xmlns="http://www.w3.org/2000/svg">
<path d="M30.3414 7.63623C30.2968 7.39448 30.2018 7.1648 30.0627 6.9621C29.9235 6.75941 29.7433 6.58824 29.5337 6.45969L24.9181 11.0736C24.7029 11.2968 24.4448 11.4744 24.1593 11.5957C23.8738 11.717 23.5668 11.7796 23.2565 11.7796C22.9463 11.7796 22.6393 11.717 22.3538 11.5957C22.0683 11.4744 21.8102 11.2968 21.595 11.0736L19.8411 9.50485C19.4182 9.07362 19.1814 8.49384 19.1814 7.89C19.1814 7.28615 19.4182 6.70637 19.8411 6.27514L24.4566 1.66126C24.3559 1.42489 24.2045 1.21351 24.0131 1.04209C23.8217 0.870676 23.5949 0.743404 23.3489 0.669282C21.7384 0.348247 20.0702 0.485667 18.5341 1.0659C16.998 1.64613 15.6557 2.64585 14.6601 3.95125C13.6644 5.25665 13.0554 6.81527 12.9025 8.44967C12.7495 10.0841 13.0586 11.7286 13.7947 13.196L1.19435 25.6765C0.974544 25.8913 0.799895 26.1479 0.680659 26.4312C0.561422 26.7144 0.5 27.0186 0.5 27.3259C0.5 27.6333 0.561422 27.9375 0.680659 28.2207C0.799895 28.504 0.974544 28.7606 1.19435 28.9754L2.02514 29.8059C2.24007 30.0256 2.49674 30.2002 2.7801 30.3194C3.06345 30.4386 3.36777 30.5 3.67519 30.5C3.98261 30.5 4.28693 30.4386 4.57029 30.3194C4.85364 30.2002 5.11032 30.0256 5.32524 29.8059L17.9256 17.2331C19.3939 17.9324 21.0275 18.2109 22.6446 18.0376C24.2618 17.8643 25.7992 17.246 27.0858 16.2515C28.3725 15.2569 29.358 13.9251 29.9327 12.4042C30.5075 10.8832 30.6489 9.23275 30.3414 7.63623V7.63623Z" stroke="#898D92" stroke-linecap="round" stroke-linejoin="round"/>
</svg>
