<svg width="31" height="30" viewBox="0 0 31 30" fill="none" xmlns="http://www.w3.org/2000/svg">
<path d="M16.6647 1.22996L20.3426 8.71464C20.4263 8.90461 20.5579 9.06916 20.7243 9.1919C20.8907 9.31463 21.0861 9.39126 21.291 9.41414L29.4101 10.6266C29.6452 10.6571 29.8669 10.7543 30.0492 10.907C30.2315 11.0597 30.3669 11.2615 30.4397 11.4889C30.5124 11.7163 30.5195 11.9598 30.4601 12.1911C30.4007 12.4224 30.2772 12.6319 30.1041 12.7951L24.2518 18.6476C24.1025 18.7882 23.9904 18.9643 23.9257 19.1598C23.8611 19.3553 23.846 19.5639 23.8817 19.7668L25.2927 27.9976C25.3336 28.2341 25.3078 28.4774 25.2182 28.6999C25.1287 28.9223 24.9789 29.1149 24.7861 29.2558C24.5933 29.3967 24.3651 29.4803 24.1276 29.4969C23.89 29.5136 23.6525 29.4626 23.4422 29.35L16.1327 25.4561C15.9455 25.3634 15.7398 25.3153 15.5313 25.3153C15.3228 25.3153 15.117 25.3634 14.9299 25.4561L7.62032 29.35C7.41003 29.4626 7.17258 29.5136 6.935 29.4969C6.69742 29.4803 6.46924 29.3967 6.27642 29.2558C6.08361 29.1149 5.9339 28.9223 5.84434 28.6999C5.75478 28.4774 5.72896 28.2341 5.76981 27.9976L7.18083 19.6735C7.21659 19.4706 7.20146 19.262 7.13682 19.0665C7.07218 18.871 6.96009 18.695 6.81072 18.5543L0.889076 12.7951C0.713884 12.6274 0.59068 12.4121 0.534387 12.1753C0.478095 11.9385 0.49113 11.6904 0.571914 11.4609C0.652697 11.2314 0.797762 11.0304 0.989537 10.8824C1.18131 10.7343 1.41157 10.6455 1.65241 10.6266L9.77155 9.41414C9.97649 9.39126 10.1719 9.31463 10.3383 9.1919C10.5047 9.06916 10.6363 8.90461 10.7199 8.71464L14.3978 1.22996C14.498 1.01197 14.6579 0.827413 14.8588 0.69807C15.0596 0.568727 15.293 0.5 15.5313 0.5C15.7696 0.5 16.003 0.568727 16.2038 0.69807C16.4046 0.827413 16.5646 1.01197 16.6647 1.22996V1.22996Z" stroke="#898D92" stroke-linecap="round" stroke-linejoin="round"/>
</svg>
