<svg width="30" height="26" viewBox="0 0 30 26" fill="none" xmlns="http://www.w3.org/2000/svg">
<path d="M18.1549 0.227232C20.9473 -0.492112 24.3461 0.534843 26.3561 2.76434H28.8805C29.1386 2.76435 29.3781 2.89732 29.5153 3.1159C29.6525 3.33448 29.6685 3.60811 29.5563 3.84051L27.1813 8.75751C27.8659 14.2958 25.7155 19.582 21.3815 22.695C16.9762 25.8591 10.4505 26.6879 2.6393 23.4821C2.29415 23.3502 1.99521 23.1181 1.78285 22.8151C1.56474 22.5037 1.44798 22.1328 1.44789 21.7526C1.44789 21.3723 1.56463 21.0007 1.78285 20.6891C2.00123 20.3776 2.31094 20.1402 2.6686 20.0104L2.72817 19.9919C4.16615 19.6019 5.53015 18.9868 6.77309 18.1745C4.46795 16.9272 2.58537 15.0048 1.39223 12.6481C0.00960529 9.91702 -0.356916 6.78451 0.354142 3.80829C0.390436 3.48104 0.511173 3.16854 0.708634 2.90399C0.92045 2.62022 1.20926 2.40278 1.54067 2.27801C1.87204 2.15328 2.23242 2.12627 2.57875 2.19989C2.92462 2.27342 3.24197 2.44485 3.49379 2.69305L4.0807 3.2536C6.99313 5.95423 9.54902 7.12706 11.3756 7.6286C12.3522 7.89671 13.1286 7.97556 13.6491 7.98895C13.6562 7.98913 13.6635 7.98879 13.6705 7.98895C13.4499 5.91955 13.7682 4.24203 14.5055 2.95282C15.3438 1.48714 16.6753 0.608424 18.1549 0.227232ZM15.2633 8.57294C15.3312 8.97834 15.0605 9.36296 14.6559 9.43524L14.5241 8.69696L15.2633 8.57294ZM2.94789 21.7526C2.94798 21.8249 2.96989 21.8956 3.01137 21.9548C3.05293 22.014 3.11226 22.059 3.18031 22.0837C3.1898 22.0871 3.19929 22.0906 3.20863 22.0944C10.658 25.1517 16.6143 24.2719 20.5065 21.4763C24.4102 18.6723 26.3717 13.8516 25.6676 8.73309C25.6475 8.58679 25.6708 8.43737 25.735 8.30438L27.6852 4.26434H26.0133C25.816 4.26427 25.6282 4.18611 25.4889 4.0495L25.4323 3.98797L25.278 3.80633C23.6456 1.9627 20.7932 1.09607 18.5289 1.67938C17.3871 1.97355 16.4183 2.62964 15.8073 3.69794C15.1918 4.77421 14.8917 6.35374 15.2633 8.57294L14.5231 8.69598L14.5241 8.69696C14.6487 9.39595 14.6561 9.43318 14.6559 9.43524H14.653L14.65 9.43622C14.6481 9.43654 14.6456 9.43679 14.6432 9.43719C14.638 9.43806 14.6313 9.43894 14.6237 9.44012C14.6083 9.4425 14.5881 9.44565 14.5631 9.44891C14.5126 9.45552 14.4423 9.46324 14.3541 9.4704C14.1776 9.48471 13.9273 9.4961 13.611 9.48797C12.9779 9.47171 12.0807 9.37824 10.9791 9.07586C8.77051 8.46952 5.7699 7.03366 2.44203 3.76239L2.44106 3.76141C2.39321 3.7142 2.33296 3.68172 2.26723 3.66766C2.2013 3.65365 2.13207 3.65856 2.06899 3.68231C2.00601 3.70607 1.95105 3.7475 1.91078 3.80145C1.87052 3.85544 1.84627 3.91982 1.84145 3.987C1.83846 4.02865 1.83276 4.07044 1.82289 4.11102L1.71352 4.60809C1.22332 7.10211 1.57773 9.69405 2.73012 11.9704C3.95931 14.3984 6.01502 16.3081 8.52699 17.3552L8.23793 18.0466L8.7018 18.6374C7.06154 19.9257 5.18044 20.8721 3.16957 21.4245C3.10593 21.4499 3.05081 21.4933 3.01137 21.5495C2.9698 21.6088 2.94789 21.6802 2.94789 21.7526Z" fill="#233942"/>
</svg>
